:FULLY-SPECIFIED
:FORCE-ALL-JOINTS-BE-3DOF
:DEGREES
476
root 3.58739 16.218 -7.06552 2.76521 60.0693 -10.0546
lfemur -41.9662 2.25816 -19.4592
ltibia 51.694 -0 0
lfoot -21.3502 -3.27325 0.0299284
ltoes 15.493 -0 0
rfemur -21.7582 1.651 12.3721
rtibia 55.5613 -0 0
rfoot 24.3924 -0.450144 -0.69414
rtoes -34.6951 0 0
lowerback 1.83995 -0.164933 2.71122
upperback -0.575184 -0.109667 1.71385
thorax -1.60973 -0.068244 0.255693
lowerneck -8.69418 -6.50548 0.872584
upperneck 4.70179 -8.84775 0.945313
head 3.07174 -4.34284 -0.337896
lclavicle 7.0817e-015 -1.86858e-014 0
lhumerus -47.8067 -27.1518 108.973
lradius 53.7585 -0 0
lwrist 2.77454 0 0
lhand -11.5109 -7.61523 0.675955
lfingers 7.12502 -0 0
lthumb 14.4939 21.3629 0.498637
rclavicle 7.0817e-015 -1.86858e-014 0
rhumerus -51.2264 8.42561 -86.2544
rradius 69.5797 -0 0
rwrist 16.3292 0 0
rhand -22.6078 -26.2736 0.671422
rfingers 7.12502 -0 0
rthumb 3.80897 -55.8639 0.699565
477
root 3.66088 16.2309 -7.01348 2.62894 61.2561 -9.89806
lfemur -41.2671 1.268 -19.4894
ltibia 51.4083 -0 0
lfoot -21.4657 -3.41465 0.0313538
ltoes 15.602 -0 0
rfemur -23.4454 1.86877 12.3109
rtibia 56.5333 -0 0
rfoot 23.7005 0.0986317 -0.727339
rtoes -33.7836 0 0
lowerback 1.99443 -0.185008 2.51961
upperback -0.539249 -0.136952 1.68041
thorax -1.65869 -0.0805357 0.330501
lowerneck -8.70938 -6.63947 0.75565
upperneck 4.84635 -9.01892 0.984312
head 3.13427 -4.42667 -0.321064
lclavicle 7.0817e-015 -1.86858e-014 0
lhumerus -47.846 -27.4168 109.271
lradius 53.8695 -0 0
lwrist 2.83124 0 0
lhand -10.5968 -7.21047 0.708324
lfingers 7.12502 -0 0
lthumb 15.3714 21.6738 0.522497
rclavicle 7.0817e-015 -1.86858e-014 0
rhumerus -50.7677 9.57499 -86.8223
rradius 70.3347 -0 0
rwrist 16.8503 0 0
rhand -21.752 -25.8442 0.703559
rfingers 7.12502 -0 0
rthumb 4.63449 -55.4002 0.733045
478
root 3.73437 16.2438 -6.96144 2.4943 62.443 -9.74148
lfemur -40.5677 0.278288 -19.5317
ltibia 51.1227 -0 0
lfoot -21.5812 -3.55606 0.0324941
ltoes 15.7109 -0 0
rfemur -25.1331 2.08465 12.2432
rtibia 57.5052 -0 0
rfoot 23.0083 0.647772 -0.753907
rtoes -32.8722 0 0
lowerback 2.14898 -0.204566 2.32794
upperback -0.503297 -0.164215 1.64696
thorax -1.70767 -0.0927634 0.40532
lowerneck -8.72431 -6.77348 0.63872
upperneck 4.99086 -9.19018 1.02289
head 3.19678 -4.51052 -0.304322
lclavicle 7.0817e-015 -1.86858e-014 0
lhumerus -47.887 -27.6816 109.57
lradius 53.9804 -0 0
lwrist 2.88794 0 0
lhand -9.68243 -6.80524 0.734231
lfingers 7.12502 -0 0
lthumb 16.249 21.985 0.541593
rclavicle 7.0817e-015 -1.86858e-014 0
rhumerus -50.319 10.7288 -87.3829
rradius 71.0897 -0 0
rwrist 17.3715 0 0
rhand -20.8961 -25.4144 0.729279
rfingers 7.12502 -0 0
rthumb 5.46026 -54.9361 0.759841
479
root 3.80787 16.2567 -6.90941 2.36136 63.6302 -9.58468
lfemur -39.8675 -0.710835 -19.5861
ltibia 50.8371 -0 0
lfoot -21.6967 -3.69747 0.0333494
ltoes 15.8199 -0 0
rfemur -26.8213 2.29845 12.1692
rtibia 58.4772 -0 0
rfoot 22.3158 1.1972 -0.773839
rtoes -31.9608 0 0
lowerback 2.3036 -0.223606 2.13623
upperback -0.46733 -0.191458 1.61349
thorax -1.75667 -0.104927 0.48015
lowerneck -8.73896 -6.90753 0.521792
upperneck 5.13531 -9.36153 1.06105
head 3.25927 -4.59438 -0.28767
lclavicle 7.0817e-015 -1.86858e-014 0
lhumerus -47.9297 -27.9462 109.869
lradius 54.0913 -0 0
lwrist 2.94463 0 0
lhand -8.76793 -6.39965 0.753668
lfingers 7.12502 -0 0
lthumb 17.1267 22.2965 0.555919
rclavicle 7.0817e-015 -1.86858e-014 0
rhumerus -49.8799 11.8868 -87.9365
rradius 71.8447 -0 0
rwrist 17.8926 0 0
rhand -20.04 -24.9842 0.748576
rfingers 7.12502 -0 0
rthumb 6.28622 -54.4716 0.779943
480
root 3.88136 16.2696 -6.85737 2.23022 64.8174 -9.42747
lfemur -39.1661 -1.69922 -19.6526
ltibia 50.5514 -0 0
lfoot -21.8122 -3.83888 0.0339196
ltoes 15.9289 -0 0
rfemur -28.51 2.50997 12.0889
rtibia 59.4492 -0 0
rfoot 21.6232 1.74682 -0.78713
rtoes -31.0493 0 0
lowerback 2.45827 -0.242129 1.94446
upperback -0.431346 -0.21868 1.58001
thorax -1.80568 -0.117027 0.554989
lowerneck -8.75335 -7.04161 0.404866
upperneck 5.27973 -9.53298 1.0988
head 3.32175 -4.67827 -0.271107
lclavicle 7.0817e-015 -1.86858e-014 0
lhumerus -47.974 -28.2106 110.17
lradius 54.2023 -0 0
lwrist 3.00133 0 0
lhand -7.85331 -5.9938 0.76663
lfingers 7.12502 -0 0
lthumb 18.0045 22.6082 0.565472
rclavicle 7.0817e-015 -1.86858e-014 0
rhumerus -49.4505 13.0489 -88.4835
rradius 72.5997 -0 0
rwrist 18.4138 0 0
rhand -19.1837 -24.5539 0.761443
rfingers 7.12502 -0 0
rthumb 7.11233 -54.0068 0.793348
481
root 3.95486 16.2825 -6.80533 2.10102 66.0049 -9.26966
lfemur -38.4631 -2.68671 -19.7313
ltibia 50.2658 -0 0
lfoot -21.9277 -3.98029 0.0342047
ltoes 16.0378 -0 0
rfemur -30.1992 2.71904 12.0023
rtibia 60.4212 -0 0
rfoot 20.9306 2.29657 -0.793776
rtoes -30.1379 0 0
lowerback 2.61301 -0.260135 1.75264
upperback -0.395347 -0.24588 1.5465
thorax -1.8547 -0.129063 0.62984
lowerneck -8.76746 -7.17571 0.287939
upperneck 5.42411 -9.70452 1.13612
head 3.38421 -4.76217 -0.254635
lclavicle 7.0817e-015 -1.86858e-014 0
lhumerus -48.02 -28.4748 110.472
lradius 54.3132 -0 0
lwrist 3.05802 0 0
lhand -6.93862 -5.58779 0.773111
lfingers 7.12502 -0 0
lthumb 18.8823 22.92 0.570249
rclavicle 7.0817e-015 -1.86858e-014 0
rhumerus -49.0303 14.2149 -89.0242
rradius 73.3547 -0 0
rwrist 18.9349 0 0
rhand -18.3274 -24.1233 0.767878
rfingers 7.12502 -0 0
rthumb 7.93851 -53.542 0.800052
482
root 4.02835 16.2955 -6.75329 1.97392 67.1924 -9.11101
lfemur -37.7581 -3.67317 -19.8222
ltibia 49.9801 -0 0
lfoot -22.0433 -4.12171 0.0342047
ltoes 16.1468 -0 0
rfemur -31.8891 2.92546 11.9097
rtibia 61.3932 -0 0
rfoot 20.2378 2.84636 -0.793776
rtoes -29.2265 0 0
lowerback 2.76781 -0.277622 1.56077
upperback -0.359332 -0.27306 1.51298
thorax -1.90375 -0.141034 0.7047
lowerneck -8.78131 -7.30984 0.17101
upperneck 5.56844 -9.87616 1.17302
head 3.44665 -4.8461 -0.238252
lclavicle 7.0817e-015 -1.86858e-014 0
lhumerus -48.0677 -28.7387 110.775
lradius 54.4241 -0 0
lwrist 3.11472 0 0
lhand -6.0239 -5.18173 0.773111
lfingers 7.12502 -0 0
lthumb 19.7601 23.2318 0.570249
rclavicle 7.0817e-015 -1.86858e-014 0
rhumerus -48.6194 15.3847 -89.5589
rradius 74.1098 -0 0
rwrist 19.4561 0 0
rhand -17.471 -23.6928 0.767878
rfingers 7.12502 -0 0
rthumb 8.76473 -53.077 0.800052
